<?xml version="1.0" encoding="utf-8"?>
<!-- Generator: Adobe Illustrator 23.0.3, SVG Export Plug-In . SVG Version: 6.00 Build 0)  -->
<svg version="1.1" id="katman_1" xmlns="http://www.w3.org/2000/svg" xmlns:xlink="http://www.w3.org/1999/xlink" x="0px" y="0px"
	 viewBox="0 0 117 86" style="enable-background:new 0 0 117 86;" xml:space="preserve">
<style type="text/css">
	.st0{clip-path:url(#SVGID_2_);}
	.st1{fill:#FFFFFF;}
</style>
<g>
	<defs>
		<rect id="SVGID_1_" y="0" width="116.9" height="85.5"/>
	</defs>
	<clipPath id="SVGID_2_">
		<use xlink:href="#SVGID_1_"  style="overflow:visible;"/>
	</clipPath>
	<g class="st0">
		<path class="st1" d="M116.8,56.5c-0.1-0.2-0.3-0.4-0.5-0.5c-0.2-0.1-0.5-0.1-0.7,0c-2.4,0.6-4.7,1.3-7,2.2c-5.6,2-12,4.3-17.8,2.2
			c-5.2-1.9-7.3-6.4-9.3-10.7c-0.9-2.2-2.1-4.3-3.5-6.2c-0.3-0.3-0.6-0.4-0.9-0.5c-0.4-0.1-0.7,0-1.1,0.2c-2.2,1.3-4.1,3-5.8,4.8
			c-2.9,2.8-5.8,5.8-10.2,6.6l-0.4,0.1l-0.2-0.3c-0.2-0.4-0.4-0.8-0.6-1.2c-0.4-0.8-0.8-1.6-1.2-2.5c-0.1-0.2-0.3-0.4-0.5-0.5
			c-0.2-0.1-0.4-0.2-0.7-0.3c-0.3-0.1-0.6-0.1-0.9,0c-0.3,0.1-0.6,0.2-0.8,0.4c-0.7,0.7-1.3,1.4-1.9,2.1c-1.5,2-3.4,3.6-5.4,5
			l-0.4,0.2L47,57.1c-2.4-3.1-5.7-6.7-9.3-7.1c-0.9-0.1-1.9,0.1-2.8,0.4c-0.9,0.3-1.7,0.8-2.4,1.5c-1.4,1.2-2.7,2.5-3.9,3.8
			c-0.5,0.6-1.1,1.2-1.7,1.8l-0.9,1l0.1-1.3c0.1-2.7,0.2-5.6,0.2-9.2c0-7.6-0.2-13.7-0.6-19.3c-0.1-1.8-0.3-3.6-0.5-5.4
			c-0.3-3-0.6-6.1-0.7-9.1c0-0.5-0.1-1.1-0.1-1.8c-0.3-3.8-0.7-9,2.4-11.6c0,0,0.1-0.1,0-0.3c-0.1-0.1-0.2-0.2-0.4-0.3
			c-0.2,0-0.3,0-0.5,0c-3.4,2.3-3.6,6.9-3.8,10.7V11c-0.1,4.2,0.1,8.4,0.5,12.6c0.1,1.4,0.2,2.8,0.3,4.2c0.6,9,0.7,18,0.2,27
			c-0.1,2.2-0.2,4.2-0.4,6v0.4l-0.4,0.1c-0.7,0.1-1-0.4-1.6-1.1l-0.5-0.7c-1-1.4-1.9-2.9-2.6-4.4c-0.2-0.5-0.5-1-0.8-1.5
			c-2-3.7-4.3-7.5-7.9-7.5c-0.9,0-1.9,0.3-2.7,0.7C1.1,49.2,0.2,55,0,60.8c-0.1,4.6,1.6,19.4,8.1,23.6c2.4,1.5,5.3,1.4,8.5-0.2
			c5-2.6,6.6-8.4,7.8-13.7c0.5-2.5,0.9-5,1.2-7.6v-0.2l0.2-0.1c2.6-2,5-4.2,7.2-6.5l0.8-0.9l0.4-0.4c1-1,2.1-2.2,4.1-1.9
			c2.3,0.4,4.8,4.1,6.3,6.2c0.3,0.4,0.5,0.8,0.7,1c0.3,0.3,0.6,0.5,1,0.6s0.7,0.1,1.1,0c3.6-1.4,5.7-3.7,8.1-6.4l0.5-0.6l0.3,0.7
			c0.4,0.6,0.7,1.3,1,2c0.2,0.3,0.4,0.5,0.7,0.6c0.3,0.1,0.6,0.2,0.9,0.2c5.8-0.4,9-3.5,12.4-6.9c1.5-1.6,3.2-3.1,5-4.4l0.4-0.3
			l0.3,0.4c1.1,1.7,2,3.5,2.9,5.3c2.4,4.8,4.6,9.4,11.2,11.2c7.1,2,14.6-1.1,21.2-3.8c1.5-0.6,2.8-1.2,4.1-1.7
			C116.8,57,116.9,56.8,116.8,56.5z M22.3,64.9c-0.3,2.3-0.8,4.6-1.4,6.9v0.1c-0.9,3.3-2.6,9.6-7.4,10.7c-0.5,0.1-1,0.2-1.5,0.2
			c-0.7,0-1.5-0.1-2.2-0.4C9.1,82,8.5,81.6,8,81.1C2.6,76,2.9,60.2,3.5,56.7c0.4-2.3,0.9-4.7,2.9-6.6c1.2-1.1,2.2-1.6,3.1-1.4
			c1.6,0.2,2.5,2,3.5,3.8c0.5,0.9,1,1.9,1.4,2.8c1.7,3.5,3.4,7,7.2,9h0.1l0.5,0.1L22.3,64.9z"/>
	</g>
</g>
</svg>
